:SAMPLES-PER-SECOND 30
:FULLY-SPECIFIED
:DEGREES
1
root  29.9858 39.8228 -9.44169 -142.334 -88.4564 139.273
RightUpLeg  4.81241 -8.59509 -5.57811
RightLeg  3.06911 4.23074 -0.311188
RightFoot  -4.14879 -0.152533 1.96765
RightToes  6.35927e-011 1.30204e-014 -6.03759e-014
Spine  4.32058 0.359104 0.899183
Spine1  -0.988433 0.721621 -1.90208
HEad  -7.68484 -4.44804 -3.18739
LeftShoulder1  0.289374 1.52901 -6.84592
LeftArm  -20.3564 10.4976 -20.306
LeftForeArm  1.06011 -1.99701 2.02956
LeftHand  0.0793126 6.9641 7.86955
RightShoulder  -0.0196289 -3.58947 9.18968
RightArm  -8.04281 -6.6907 14.1847
RightForeArm  0.828565 3.3511 -2.67247
RightHand  0.0375908 4.14029 0.0920507
LeftUpLeg  4.39573 7.54929 4.57986
LeftLeg  1.14552 3.72514 0.66943
LeftFoot  -0.864633 0.124771 -1.39914
LeftToes  -7.16024e-010 4.79583e-011 -5.98286e-011
2
root  29.9766 39.8228 -9.43374 -143.491 -88.4175 140.442
RightUpLeg  4.81513 -8.58176 -5.57729
RightLeg  3.05482 4.26223 -0.331936
RightFoot  -4.1482 -0.153474 1.98225
RightToes  6.35927e-011 1.30204e-014 -6.03759e-014
Spine  4.23281 0.3693 0.966906
Spine1  -0.968072 0.75953 -1.96944
HEad  -7.66189 -4.46478 -3.11908
LeftShoulder1  0.289374 1.50227 -6.85322
LeftArm  -20.341 10.3659 -20.3314
LeftForeArm  1.37265 -1.95091 2.02665
LeftHand  0.0575997 6.74162 7.27223
RightShoulder  -0.0196205 -3.58007 9.19983
RightArm  -8.04873 -6.61286 14.268
RightForeArm  0.831156 3.33733 -2.65886
RightHand  0.0373527 4.16608 0.124139
LeftUpLeg  4.41229 7.55262 4.57256
LeftLeg  1.12776 3.75533 0.665617
LeftFoot  -0.867565 0.123366 -1.3773
LeftToes  -7.16024e-010 4.79583e-011 -5.98286e-011
3
root  29.959 39.8228 -9.41909 -145.828 -88.353 142.807
RightUpLeg  4.82717 -8.56167 -5.57781
RightLeg  2.99684 4.33197 -0.359036
RightFoot  -4.14349 -0.156382 2.02737
RightToes  6.35927e-011 1.30204e-014 -6.03759e-014
Spine  4.08967 0.395838 1.0991
Spine1  -0.940648 0.820235 -2.09067
HEad  -7.57484 -4.40713 -3.0291
LeftShoulder1  0.289374 1.48211 -6.85172
LeftArm  -20.3453 10.1039 -20.4223
LeftForeArm  1.87944 -1.86104 2.03352
LeftHand  0.0268916 6.37192 6.37071
RightShoulder  -0.0196206 -3.57289 9.19697
RightArm  -7.9745 -6.50397 14.4366
RightForeArm  0.822703 3.35187 -2.60187
RightHand  0.0359386 4.28915 0.157286
LeftUpLeg  4.43932 7.56311 4.57039
LeftLeg  1.10373 3.82404 0.659097
LeftFoot  -0.887418 0.122585 -1.36516
LeftToes  -7.16024e-010 4.79583e-011 -5.98286e-011
4
root  29.9417 39.8228 -9.40348 -146.919 -88.3172 143.939
RightUpLeg  4.83557 -8.57045 -5.59747
RightLeg  2.93136 4.39309 -0.360976
RightFoot  -4.13758 -0.15857 2.06131
RightToes  6.35927e-011 1.30204e-014 -6.03759e-014
Spine  3.97537 0.412639 1.21031
Spine1  -0.929455 0.847644 -2.16991
HEad  -7.52052 -4.34978 -2.99166
LeftShoulder1  0.289374 1.47364 -6.85079
LeftArm  -20.4029 9.8766 -20.5755
LeftForeArm  2.17754 -1.81119 2.05129
LeftHand  0.0204606 6.30455 6.02494
RightShoulder  -0.0196166 -3.57706 9.20514
RightArm  -7.80624 -6.41232 14.5533
RightForeArm  0.728914 3.41951 -2.50693
RightHand  0.0285768 4.42454 0.0534576
LeftUpLeg  4.42906 7.54585 4.54151
LeftLeg  1.10872 3.89634 0.66738
LeftFoot  -0.928783 0.123879 -1.38527
LeftToes  -7.16024e-010 4.79583e-011 -5.98286e-011
5
root  29.928 39.8228 -9.38961 -145.727 -88.3191 142.786
RightUpLeg  4.82672 -8.6109 -5.65919
RightLeg  2.91458 4.42059 -0.347807
RightFoot  -4.15399 -0.159045 2.06869
RightToes  6.35927e-011 1.30204e-014 -6.03759e-014
Spine  3.95414 0.396103 1.23514
Spine1  -0.95858 0.827646 -2.10422
HEad  -7.55592 -4.2761 -3.09134
LeftShoulder1  0.289374 1.45947 -6.9078
LeftArm  -20.4676 9.82568 -20.7435
LeftForeArm  2.14942 -1.85872 2.05789
LeftHand  0.0370757 6.57944 6.32832
RightShoulder  -0.0196042 -3.59458 9.23249
RightArm  -7.61165 -6.3216 14.5265
RightForeArm  0.544878 3.52712 -2.40341
RightHand  0.00419763 4.38718 -0.234147
LeftUpLeg  4.39658 7.4819 4.46006
LeftLeg  1.12152 3.95739 0.7046
LeftFoot  -0.953779 0.125545 -1.41117
LeftToes  -7.16024e-010 4.79583e-011 -5.98286e-011
6
root  29.9149 39.8228 -9.37757 -144.236 -88.3175 141.293
RightUpLeg  4.84056 -8.64232 -5.72313
RightLeg  2.93919 4.44052 -0.353963
RightFoot  -4.18045 -0.159677 2.0785
RightToes  6.35927e-011 1.30204e-014 -6.03759e-014
Spine  4.00928 0.361505 1.17873
Spine1  -0.964573 0.776586 -2.00951
HEad  -7.70623 -4.18261 -3.17234
LeftShoulder1  0.289374 1.46881 -6.94595
LeftArm  -20.4713 9.89167 -20.8517
LeftForeArm  1.99004 -1.91162 2.04342
LeftHand  0.0547953 6.84112 6.67011
RightShoulder  -0.0187481 -3.59968 9.34655
RightArm  -7.47124 -6.22016 14.4487
RightForeArm  0.423027 3.61976 -2.32586
RightHand  -0.0205982 4.16712 -0.525492
LeftUpLeg  4.4207 7.42045 4.37722
LeftLeg  1.10427 4.00696 0.738219
LeftFoot  -0.952623 0.125264 -1.4068
LeftToes  -7.16024e-010 4.79583e-011 -5.98286e-011
7
root  29.9017 39.8228 -9.36646 -144.489 -88.2986 141.483
RightUpLeg  4.91985 -8.64242 -5.75038
RightLeg  2.95402 4.47222 -0.380647
RightFoot  -4.18823 -0.160745 2.09505
RightToes  6.35927e-011 1.30204e-014 -6.03759e-014
Spine  4.04378 0.338144 1.09903
Spine1  -0.814996 0.720049 -1.80913
HEad  -7.99881 -4.10689 -3.28424
LeftShoulder1  0.289374 1.52203 -7.11932
LeftArm  -20.4117 9.88288 -20.8602
LeftForeArm  1.87435 -1.80467 2.02698
LeftHand  0.0601447 6.93948 6.67567
RightShoulder  -0.0148107 -3.57401 9.31555
RightArm  -7.42867 -6.12211 14.4771
RightForeArm  0.496409 3.6164 -2.29883
RightHand  -0.0268226 3.97681 -0.600128
LeftUpLeg  4.52767 7.41707 4.35861
LeftLeg  1.076 4.02711 0.742294
LeftFoot  -0.957875 0.123122 -1.37351
LeftToes  -7.16024e-010 4.79583e-011 -5.98286e-011
8
root  29.8912 39.8228 -9.35605 -145.394 -88.29 142.301
RightUpLeg  5.03683 -8.63919 -5.76216
RightLeg  2.94004 4.49468 -0.397733
RightFoot  -4.18304 -0.160616 2.09305
RightToes  6.35927e-011 1.30204e-014 -6.03759e-014
Spine  3.99974 0.329655 1.05397
Spine1  -0.512558 0.681506 -1.62736
HEad  -8.36803 -4.1144 -3.38544
LeftShoulder1  0.289464 1.56833 -7.31658
LeftArm  -20.3471 9.7511 -20.8294
LeftForeArm  1.76709 -1.54104 2.0265
LeftHand  0.0661901 7.07534 6.59799
RightShoulder  -0.00914533 -3.54073 9.18307
RightArm  -7.46644 -6.05488 14.6045
RightForeArm  0.669613 3.49127 -2.32088
RightHand  -0.0156674 3.94929 -0.461894
LeftUpLeg  4.64728 7.44974 4.38174
LeftLeg  1.0733 4.00558 0.730472
LeftFoot  -0.98528 0.121114 -1.34229
LeftToes  -7.16024e-010 4.79583e-011 -5.98286e-011
9
root  29.8832 39.8228 -9.34722 -145.066 -88.3 141.923
RightUpLeg  5.12353 -8.65466 -5.79467
RightLeg  2.90931 4.49656 -0.399064
RightFoot  -4.19462 -0.160508 2.09138
RightToes  6.35927e-011 1.30204e-014 -6.03759e-014
Spine  3.93117 0.326033 1.06339
Spine1  -0.250438 0.672129 -1.58769
HEad  -8.60415 -4.24304 -3.40515
LeftShoulder1  0.290083 1.57084 -7.37306
LeftArm  -20.3292 9.6424 -20.8488
LeftForeArm  1.64011 -1.33353 2.03895
LeftHand  0.0803016 7.32062 6.66604
RightShoulder  -0.00544049 -3.51866 9.1069
RightArm  -7.51837 -6.07487 14.6982
RightForeArm  0.741582 3.33982 -2.36252
RightHand  -0.00209094 3.97956 -0.294226
LeftUpLeg  4.71045 7.46101 4.37706
LeftLeg  1.07844 3.97524 0.725682
LeftFoot  -1.00952 0.120354 -1.33048
LeftToes  -7.16024e-010 4.79583e-011 -5.98286e-011
10
root  29.8744 39.8228 -9.34056 -143.91 -88.3078 140.774
RightUpLeg  5.15773 -8.67039 -5.83573
RightLeg  2.86444 4.49654 -0.404651
RightFoot  -4.2221 -0.163267 2.13418
RightToes  6.35927e-011 1.30204e-014 -6.03759e-014
Spine  3.9246 0.325006 1.10015
Spine1  -0.190503 0.680733 -1.64135
HEad  -8.68732 -4.43045 -3.33253
LeftShoulder1  0.29091 1.57005 -7.34845
LeftArm  -20.3598 9.65902 -20.8821
LeftForeArm  1.59923 -1.33975 2.05399
LeftHand  0.0888877 7.46179 6.72293
RightShoulder  -0.00137552 -3.49464 9.09442
RightArm  -7.51145 -6.22801 14.715
RightForeArm  0.686231 3.27765 -2.38732
RightHand  0.00327077 3.9742 -0.230245
LeftUpLeg  4.7207 7.44709 4.33934
LeftLeg  1.06174 3.97228 0.724568
LeftFoot  -1.01774 0.120167 -1.32757
LeftToes  -7.16024e-010 4.79583e-011 -5.98286e-011
11
root  29.865 39.8228 -9.33429 -143.105 -88.3118 140.001
RightUpLeg  5.16638 -8.67636 -5.86286
RightLeg  2.81317 4.49423 -0.413598
RightFoot  -4.23499 -0.167028 2.19255
RightToes  6.35927e-011 1.30204e-014 -6.03759e-014
Spine  3.99908 0.318447 1.13426
Spine1  -0.29702 0.677041 -1.66714
HEad  -8.62306 -4.5759 -3.29432
LeftShoulder1  0.291667 1.60272 -7.41992
LeftArm  -20.381 9.7506 -20.8113
LeftForeArm  1.65896 -1.47467 2.05573
LeftHand  0.0845197 7.39833 6.67074
RightShoulder  0.00378637 -3.45954 9.05587
RightArm  -7.40911 -6.44109 14.7056
RightForeArm  0.650708 3.26924 -2.37922
RightHand  0.00243305 4.01937 -0.262352
LeftUpLeg  4.70973 7.43574 4.30757
LeftLeg  1.04111 3.98343 0.716831
LeftFoot  -1.02883 0.119355 -1.31495
LeftToes  -7.16024e-010 4.79583e-011 -5.98286e-011
